<svg xmlns="http://www.w3.org/2000/svg" viewBox="0 0 1400 800">

<defs>
  <linearGradient id="g" x1="0" x2="1" y1="0" y2="1">
    <stop offset="0%" stop-color="#3a89ff"/>
    <stop offset="50%" stop-color="#8b5cf6"/>
    <stop offset="100%" stop-color="#22d3ee"/>
  </linearGradient>
  <filter id="glow"><feGaussianBlur stdDeviation="8" result="b"/><feMerge><feMergeNode in="b"/><feMergeNode in="SourceGraphic"/></feMerge></filter>
</defs>

<rect width="1400" height="800" rx="48" fill="#070a16"/>
<circle cx="1180" cy="110" r="230" fill="#3a89ff" opacity=".12" filter="url(#glow)"/>
<circle cx="210" cy="690" r="260" fill="#8b5cf6" opacity=".12" filter="url(#glow)"/>
<text x="70" y="92" fill="#f4f7fb" font-family="Inter, Arial" font-size="46" font-weight="700">Proof-of-Work Mining Flow</text>
<path d="M340 275 C370 275, 370 275, 400 275" stroke="url(#g)" stroke-width="5" fill="none" opacity=".85"/>
<path d="M650 275 C680 275, 680 275, 710 275" stroke="url(#g)" stroke-width="5" fill="none" opacity=".85"/>
<path d="M960 275 C990 275, 990 275, 1020 275" stroke="url(#g)" stroke-width="5" fill="none" opacity=".85"/>
<path d="M1145 330 C922 330, 922 505, 700 505" stroke="url(#g)" stroke-width="5" fill="none" opacity=".85"/>
<text x="922" y="405" fill="#9cacbf" font-family="Inter, Arial" font-size="24" text-anchor="middle">valid hash</text>
<rect x="90" y="220" width="250" height="110" rx="28" fill="#131c36" stroke="#3a89ff" stroke-width="3" opacity=".96"/>
<rect x="108" y="238" width="54" height="54" rx="18" fill="#3a89ff" opacity=".2"/>
<circle cx="135" cy="265" r="12" fill="#3a89ff"/>
<text x="182" y="264" fill="#f4f7fb" font-family="Inter, Arial" font-size="28" font-weight="700">Collect
mempool txs</text>
<rect x="400" y="220" width="250" height="110" rx="28" fill="#131c36" stroke="#8b5cf6" stroke-width="3" opacity=".96"/>
<rect x="418" y="238" width="54" height="54" rx="18" fill="#8b5cf6" opacity=".2"/>
<circle cx="445" cy="265" r="12" fill="#8b5cf6"/>
<text x="492" y="264" fill="#f4f7fb" font-family="Inter, Arial" font-size="28" font-weight="700">Reward
SYSTEM -> miner</text>
<rect x="710" y="220" width="250" height="110" rx="28" fill="#131c36" stroke="#22d3ee" stroke-width="3" opacity=".96"/>
<rect x="728" y="238" width="54" height="54" rx="18" fill="#22d3ee" opacity=".2"/>
<circle cx="755" cy="265" r="12" fill="#22d3ee"/>
<text x="802" y="264" fill="#f4f7fb" font-family="Inter, Arial" font-size="28" font-weight="700">Nonce
increment</text>
<rect x="1020" y="220" width="250" height="110" rx="28" fill="#131c36" stroke="#22c55e" stroke-width="3" opacity=".96"/>
<rect x="1038" y="238" width="54" height="54" rx="18" fill="#22c55e" opacity=".2"/>
<circle cx="1065" cy="265" r="12" fill="#22c55e"/>
<text x="1112" y="264" fill="#f4f7fb" font-family="Inter, Arial" font-size="28" font-weight="700">Target
leading zeros</text>
<rect x="425" y="505" width="550" height="110" rx="28" fill="#131c36" stroke="#f59e0b" stroke-width="3" opacity=".96"/>
<rect x="443" y="523" width="54" height="54" rx="18" fill="#f59e0b" opacity=".2"/>
<circle cx="470" cy="550" r="12" fill="#f59e0b"/>
<text x="517" y="549" fill="#f4f7fb" font-family="Inter, Arial" font-size="28" font-weight="700">Append block
hash, attempts, mining time</text>
</svg>